  0
SECTION
  2
HEADER
  9
$ACADVER
  1
AC1009
  9
$MEASUREMENT
 70
     1
  0
ENDSEC
  0
SECTION
  2
ENTITIES
  0
LWPOLYLINE
  8
0
 62
7
 90
9
 70
1
 10
18.750000
 20
11.150000
 10
18.500000
 20
11.150000
 10
18.500000
 20
10.350000
 10
19.000000
 20
10.350000
 10
19.000000
 20
11.150000
 10
18.500000
 20
11.150000
 10
18.500000
 20
10.350000
 10
19.000000
 20
10.350000
 10
19.000000
 20
11.150000
  0
LWPOLYLINE
  8
0
 62
7
 90
9
 70
1
 10
20.250000
 20
11.150000
 10
20.000000
 20
11.150000
 10
20.000000
 20
10.350000
 10
20.500000
 20
10.350000
 10
20.500000
 20
11.150000
 10
20.000000
 20
11.150000
 10
20.000000
 20
10.350000
 10
20.500000
 20
10.350000
 10
20.500000
 20
11.150000
  0
LWPOLYLINE
  8
0
 62
7
 90
9
 70
1
 10
18.750000
 20
9.650000
 10
18.500000
 20
9.650000
 10
18.500000
 20
8.850000
 10
19.000000
 20
8.850000
 10
19.000000
 20
9.650000
 10
18.500000
 20
9.650000
 10
18.500000
 20
8.850000
 10
19.000000
 20
8.850000
 10
19.000000
 20
9.650000
  0
LWPOLYLINE
  8
0
 62
7
 90
9
 70
1
 10
20.250000
 20
9.650000
 10
20.000000
 20
9.650000
 10
20.000000
 20
8.850000
 10
20.500000
 20
8.850000
 10
20.500000
 20
9.650000
 10
20.000000
 20
9.650000
 10
20.000000
 20
8.850000
 10
20.500000
 20
8.850000
 10
20.500000
 20
9.650000
  0
LWPOLYLINE
  8
0
 62
7
 90
9
 70
1
 10
28.600000
 20
20.250000
 10
28.600000
 20
20.000000
 10
29.400000
 20
20.000000
 10
29.400000
 20
20.500000
 10
28.600000
 20
20.500000
 10
28.600000
 20
20.000000
 10
29.400000
 20
20.000000
 10
29.400000
 20
20.500000
 10
28.600000
 20
20.500000
  0
LWPOLYLINE
  8
0
 62
7
 90
9
 70
1
 10
28.600000
 20
21.750000
 10
28.600000
 20
21.500000
 10
29.400000
 20
21.500000
 10
29.400000
 20
22.000000
 10
28.600000
 20
22.000000
 10
28.600000
 20
21.500000
 10
29.400000
 20
21.500000
 10
29.400000
 20
22.000000
 10
28.600000
 20
22.000000
  0
LWPOLYLINE
  8
0
 62
7
 90
9
 70
1
 10
29.400000
 20
24.750000
 10
29.400000
 20
25.000000
 10
28.600000
 20
25.000000
 10
28.600000
 20
24.500000
 10
29.400000
 20
24.500000
 10
29.400000
 20
25.000000
 10
28.600000
 20
25.000000
 10
28.600000
 20
24.500000
 10
29.400000
 20
24.500000
  0
LWPOLYLINE
  8
0
 62
7
 90
9
 70
1
 10
29.400000
 20
23.250000
 10
29.400000
 20
23.500000
 10
28.600000
 20
23.500000
 10
28.600000
 20
23.000000
 10
29.400000
 20
23.000000
 10
29.400000
 20
23.500000
 10
28.600000
 20
23.500000
 10
28.600000
 20
23.000000
 10
29.400000
 20
23.000000
  0
LWPOLYLINE
  8
0
 62
7
 90
9
 70
1
 10
18.750000
 20
12.650000
 10
18.500000
 20
12.650000
 10
18.500000
 20
11.850000
 10
19.000000
 20
11.850000
 10
19.000000
 20
12.650000
 10
18.500000
 20
12.650000
 10
18.500000
 20
11.850000
 10
19.000000
 20
11.850000
 10
19.000000
 20
12.650000
  0
LWPOLYLINE
  8
0
 62
7
 90
9
 70
1
 10
20.250000
 20
12.650000
 10
20.000000
 20
12.650000
 10
20.000000
 20
11.850000
 10
20.500000
 20
11.850000
 10
20.500000
 20
12.650000
 10
20.000000
 20
12.650000
 10
20.000000
 20
11.850000
 10
20.500000
 20
11.850000
 10
20.500000
 20
12.650000
  0
LWPOLYLINE
  8
0
 62
7
 90
9
 70
1
 10
25.125000
 20
16.675000
 10
25.125000
 20
17.250000
 10
23.875000
 20
17.250000
 10
23.875000
 20
16.100000
 10
25.125000
 20
16.100000
 10
25.125000
 20
17.250000
 10
23.875000
 20
17.250000
 10
23.875000
 20
16.100000
 10
25.125000
 20
16.100000
  0
LWPOLYLINE
  8
0
 62
7
 90
9
 70
1
 10
25.125000
 20
15.325000
 10
25.125000
 20
15.900000
 10
23.875000
 20
15.900000
 10
23.875000
 20
14.750000
 10
25.125000
 20
14.750000
 10
25.125000
 20
15.900000
 10
23.875000
 20
15.900000
 10
23.875000
 20
14.750000
 10
25.125000
 20
14.750000
  0
LWPOLYLINE
  8
0
 62
7
 90
9
 70
1
 10
18.750000
 20
14.150000
 10
18.500000
 20
14.150000
 10
18.500000
 20
13.350000
 10
19.000000
 20
13.350000
 10
19.000000
 20
14.150000
 10
18.500000
 20
14.150000
 10
18.500000
 20
13.350000
 10
19.000000
 20
13.350000
 10
19.000000
 20
14.150000
  0
LWPOLYLINE
  8
0
 62
7
 90
9
 70
1
 10
20.250000
 20
14.150000
 10
20.000000
 20
14.150000
 10
20.000000
 20
13.350000
 10
20.500000
 20
13.350000
 10
20.500000
 20
14.150000
 10
20.000000
 20
14.150000
 10
20.000000
 20
13.350000
 10
20.500000
 20
13.350000
 10
20.500000
 20
14.150000
  0
LWPOLYLINE
  8
0
 62
7
 90
9
 70
1
 10
10.250000
 20
12.650000
 10
10.000000
 20
12.650000
 10
10.000000
 20
11.850000
 10
10.500000
 20
11.850000
 10
10.500000
 20
12.650000
 10
10.000000
 20
12.650000
 10
10.000000
 20
11.850000
 10
10.500000
 20
11.850000
 10
10.500000
 20
12.650000
  0
LWPOLYLINE
  8
0
 62
7
 90
9
 70
1
 10
11.750000
 20
12.650000
 10
11.500000
 20
12.650000
 10
11.500000
 20
11.850000
 10
12.000000
 20
11.850000
 10
12.000000
 20
12.650000
 10
11.500000
 20
12.650000
 10
11.500000
 20
11.850000
 10
12.000000
 20
11.850000
 10
12.000000
 20
12.650000
  0
LWPOLYLINE
  8
0
 62
7
 90
9
 70
1
 10
10.250000
 20
8.150000
 10
10.000000
 20
8.150000
 10
10.000000
 20
7.350000
 10
10.500000
 20
7.350000
 10
10.500000
 20
8.150000
 10
10.000000
 20
8.150000
 10
10.000000
 20
7.350000
 10
10.500000
 20
7.350000
 10
10.500000
 20
8.150000
  0
LWPOLYLINE
  8
0
 62
7
 90
9
 70
1
 10
11.750000
 20
8.150000
 10
11.500000
 20
8.150000
 10
11.500000
 20
7.350000
 10
12.000000
 20
7.350000
 10
12.000000
 20
8.150000
 10
11.500000
 20
8.150000
 10
11.500000
 20
7.350000
 10
12.000000
 20
7.350000
 10
12.000000
 20
8.150000
  0
LWPOLYLINE
  8
0
 62
7
 90
9
 70
1
 10
32.250000
 20
9.400000
 10
32.000000
 20
9.400000
 10
32.000000
 20
8.600000
 10
32.500000
 20
8.600000
 10
32.500000
 20
9.400000
 10
32.000000
 20
9.400000
 10
32.000000
 20
8.600000
 10
32.500000
 20
8.600000
 10
32.500000
 20
9.400000
  0
LWPOLYLINE
  8
0
 62
7
 90
9
 70
1
 10
33.750000
 20
9.400000
 10
33.500000
 20
9.400000
 10
33.500000
 20
8.600000
 10
34.000000
 20
8.600000
 10
34.000000
 20
9.400000
 10
33.500000
 20
9.400000
 10
33.500000
 20
8.600000
 10
34.000000
 20
8.600000
 10
34.000000
 20
9.400000
  0
LWPOLYLINE
  8
0
 62
7
 90
9
 70
1
 10
10.250000
 20
9.650000
 10
10.000000
 20
9.650000
 10
10.000000
 20
8.850000
 10
10.500000
 20
8.850000
 10
10.500000
 20
9.650000
 10
10.000000
 20
9.650000
 10
10.000000
 20
8.850000
 10
10.500000
 20
8.850000
 10
10.500000
 20
9.650000
  0
LWPOLYLINE
  8
0
 62
7
 90
9
 70
1
 10
11.750000
 20
9.650000
 10
11.500000
 20
9.650000
 10
11.500000
 20
8.850000
 10
12.000000
 20
8.850000
 10
12.000000
 20
9.650000
 10
11.500000
 20
9.650000
 10
11.500000
 20
8.850000
 10
12.000000
 20
8.850000
 10
12.000000
 20
9.650000
  0
LWPOLYLINE
  8
0
 62
7
 90
9
 70
1
 10
10.250000
 20
11.150000
 10
10.000000
 20
11.150000
 10
10.000000
 20
10.350000
 10
10.500000
 20
10.350000
 10
10.500000
 20
11.150000
 10
10.000000
 20
11.150000
 10
10.000000
 20
10.350000
 10
10.500000
 20
10.350000
 10
10.500000
 20
11.150000
  0
LWPOLYLINE
  8
0
 62
7
 90
9
 70
1
 10
11.750000
 20
11.150000
 10
11.500000
 20
11.150000
 10
11.500000
 20
10.350000
 10
12.000000
 20
10.350000
 10
12.000000
 20
11.150000
 10
11.500000
 20
11.150000
 10
11.500000
 20
10.350000
 10
12.000000
 20
10.350000
 10
12.000000
 20
11.150000
  0
LWPOLYLINE
  8
0
 62
7
 90
9
 70
1
 10
10.475000
 20
16.000000
 10
10.050000
 20
16.000000
 10
10.050000
 20
13.500000
 10
10.900000
 20
13.500000
 10
10.900000
 20
16.000000
 10
10.050000
 20
16.000000
 10
10.050000
 20
13.500000
 10
10.900000
 20
13.500000
 10
10.900000
 20
16.000000
  0
LWPOLYLINE
  8
0
 62
7
 90
9
 70
1
 10
13.525000
 20
16.000000
 10
13.100000
 20
16.000000
 10
13.100000
 20
13.500000
 10
13.950000
 20
13.500000
 10
13.950000
 20
16.000000
 10
13.100000
 20
16.000000
 10
13.100000
 20
13.500000
 10
13.950000
 20
13.500000
 10
13.950000
 20
16.000000
  0
LWPOLYLINE
  8
0
 62
7
 90
9
 70
1
 10
8.470000
 20
13.200000
 10
8.470000
 20
13.500000
 10
6.930000
 20
13.500000
 10
6.930000
 20
12.900000
 10
8.470000
 20
12.900000
 10
8.470000
 20
13.500000
 10
6.930000
 20
13.500000
 10
6.930000
 20
12.900000
 10
8.470000
 20
12.900000
  0
LWPOLYLINE
  8
0
 62
7
 90
9
 70
1
 10
8.470000
 20
12.400000
 10
8.470000
 20
12.700000
 10
6.930000
 20
12.700000
 10
6.930000
 20
12.100000
 10
8.470000
 20
12.100000
 10
8.470000
 20
12.700000
 10
6.930000
 20
12.700000
 10
6.930000
 20
12.100000
 10
8.470000
 20
12.100000
  0
LWPOLYLINE
  8
0
 62
7
 90
9
 70
1
 10
8.470000
 20
11.250000
 10
8.470000
 20
11.400000
 10
6.930000
 20
11.400000
 10
6.930000
 20
11.100000
 10
8.470000
 20
11.100000
 10
8.470000
 20
11.400000
 10
6.930000
 20
11.400000
 10
6.930000
 20
11.100000
 10
8.470000
 20
11.100000
  0
LWPOLYLINE
  8
0
 62
7
 90
9
 70
1
 10
8.470000
 20
10.250000
 10
8.470000
 20
10.400000
 10
6.930000
 20
10.400000
 10
6.930000
 20
10.100000
 10
8.470000
 20
10.100000
 10
8.470000
 20
10.400000
 10
6.930000
 20
10.400000
 10
6.930000
 20
10.100000
 10
8.470000
 20
10.100000
  0
LWPOLYLINE
  8
0
 62
7
 90
9
 70
1
 10
8.470000
 20
9.750000
 10
8.470000
 20
9.900000
 10
6.930000
 20
9.900000
 10
6.930000
 20
9.600000
 10
8.470000
 20
9.600000
 10
8.470000
 20
9.900000
 10
6.930000
 20
9.900000
 10
6.930000
 20
9.600000
 10
8.470000
 20
9.600000
  0
LWPOLYLINE
  8
0
 62
7
 90
9
 70
1
 10
8.470000
 20
8.750000
 10
8.470000
 20
8.900000
 10
6.930000
 20
8.900000
 10
6.930000
 20
8.600000
 10
8.470000
 20
8.600000
 10
8.470000
 20
8.900000
 10
6.930000
 20
8.900000
 10
6.930000
 20
8.600000
 10
8.470000
 20
8.600000
  0
LWPOLYLINE
  8
0
 62
7
 90
9
 70
1
 10
8.470000
 20
6.800000
 10
8.470000
 20
7.100000
 10
6.930000
 20
7.100000
 10
6.930000
 20
6.500000
 10
8.470000
 20
6.500000
 10
8.470000
 20
7.100000
 10
6.930000
 20
7.100000
 10
6.930000
 20
6.500000
 10
8.470000
 20
6.500000
  0
LWPOLYLINE
  8
0
 62
7
 90
9
 70
1
 10
8.470000
 20
7.600000
 10
8.470000
 20
7.900000
 10
6.930000
 20
7.900000
 10
6.930000
 20
7.300000
 10
8.470000
 20
7.300000
 10
8.470000
 20
7.900000
 10
6.930000
 20
7.900000
 10
6.930000
 20
7.300000
 10
8.470000
 20
7.300000
  0
LWPOLYLINE
  8
0
 62
7
 90
9
 70
1
 10
8.470000
 20
8.250000
 10
8.470000
 20
8.400000
 10
6.930000
 20
8.400000
 10
6.930000
 20
8.100000
 10
8.470000
 20
8.100000
 10
8.470000
 20
8.400000
 10
6.930000
 20
8.400000
 10
6.930000
 20
8.100000
 10
8.470000
 20
8.100000
  0
LWPOLYLINE
  8
0
 62
7
 90
9
 70
1
 10
8.470000
 20
9.250000
 10
8.470000
 20
9.400000
 10
6.930000
 20
9.400000
 10
6.930000
 20
9.100000
 10
8.470000
 20
9.100000
 10
8.470000
 20
9.400000
 10
6.930000
 20
9.400000
 10
6.930000
 20
9.100000
 10
8.470000
 20
9.100000
  0
LWPOLYLINE
  8
0
 62
7
 90
9
 70
1
 10
8.470000
 20
10.750000
 10
8.470000
 20
10.900000
 10
6.930000
 20
10.900000
 10
6.930000
 20
10.600000
 10
8.470000
 20
10.600000
 10
8.470000
 20
10.900000
 10
6.930000
 20
10.900000
 10
6.930000
 20
10.600000
 10
8.470000
 20
10.600000
  0
LWPOLYLINE
  8
0
 62
7
 90
9
 70
1
 10
8.470000
 20
11.750000
 10
8.470000
 20
11.900000
 10
6.930000
 20
11.900000
 10
6.930000
 20
11.600000
 10
8.470000
 20
11.600000
 10
8.470000
 20
11.900000
 10
6.930000
 20
11.900000
 10
6.930000
 20
11.600000
 10
8.470000
 20
11.600000
  0
LWPOLYLINE
  8
0
 62
7
 90
9
 70
1
 10
15.000000
 20
8.450000
 10
14.850000
 20
8.450000
 10
14.850000
 20
7.100000
 10
15.150000
 20
7.100000
 10
15.150000
 20
8.450000
 10
14.850000
 20
8.450000
 10
14.850000
 20
7.100000
 10
15.150000
 20
7.100000
 10
15.150000
 20
8.450000
  0
LWPOLYLINE
  8
0
 62
7
 90
9
 70
1
 10
15.500000
 20
8.450000
 10
15.350000
 20
8.450000
 10
15.350000
 20
7.100000
 10
15.650000
 20
7.100000
 10
15.650000
 20
8.450000
 10
15.350000
 20
8.450000
 10
15.350000
 20
7.100000
 10
15.650000
 20
7.100000
 10
15.650000
 20
8.450000
  0
LWPOLYLINE
  8
0
 62
7
 90
9
 70
1
 10
16.000000
 20
8.450000
 10
15.850000
 20
8.450000
 10
15.850000
 20
7.100000
 10
16.150000
 20
7.100000
 10
16.150000
 20
8.450000
 10
15.850000
 20
8.450000
 10
15.850000
 20
7.100000
 10
16.150000
 20
7.100000
 10
16.150000
 20
8.450000
  0
LWPOLYLINE
  8
0
 62
7
 90
9
 70
1
 10
16.500000
 20
8.450000
 10
16.350000
 20
8.450000
 10
16.350000
 20
7.100000
 10
16.650000
 20
7.100000
 10
16.650000
 20
8.450000
 10
16.350000
 20
8.450000
 10
16.350000
 20
7.100000
 10
16.650000
 20
7.100000
 10
16.650000
 20
8.450000
  0
LWPOLYLINE
  8
0
 62
7
 90
9
 70
1
 10
17.000000
 20
8.450000
 10
16.850000
 20
8.450000
 10
16.850000
 20
7.100000
 10
17.150000
 20
7.100000
 10
17.150000
 20
8.450000
 10
16.850000
 20
8.450000
 10
16.850000
 20
7.100000
 10
17.150000
 20
7.100000
 10
17.150000
 20
8.450000
  0
LWPOLYLINE
  8
0
 62
7
 90
9
 70
1
 10
17.000000
 20
12.900000
 10
16.850000
 20
12.900000
 10
16.850000
 20
11.550000
 10
17.150000
 20
11.550000
 10
17.150000
 20
12.900000
 10
16.850000
 20
12.900000
 10
16.850000
 20
11.550000
 10
17.150000
 20
11.550000
 10
17.150000
 20
12.900000
  0
LWPOLYLINE
  8
0
 62
7
 90
9
 70
1
 10
16.500000
 20
12.900000
 10
16.350000
 20
12.900000
 10
16.350000
 20
11.550000
 10
16.650000
 20
11.550000
 10
16.650000
 20
12.900000
 10
16.350000
 20
12.900000
 10
16.350000
 20
11.550000
 10
16.650000
 20
11.550000
 10
16.650000
 20
12.900000
  0
LWPOLYLINE
  8
0
 62
7
 90
9
 70
1
 10
16.000000
 20
12.900000
 10
15.850000
 20
12.900000
 10
15.850000
 20
11.550000
 10
16.150000
 20
11.550000
 10
16.150000
 20
12.900000
 10
15.850000
 20
12.900000
 10
15.850000
 20
11.550000
 10
16.150000
 20
11.550000
 10
16.150000
 20
12.900000
  0
LWPOLYLINE
  8
0
 62
7
 90
9
 70
1
 10
15.500000
 20
12.900000
 10
15.350000
 20
12.900000
 10
15.350000
 20
11.550000
 10
15.650000
 20
11.550000
 10
15.650000
 20
12.900000
 10
15.350000
 20
12.900000
 10
15.350000
 20
11.550000
 10
15.650000
 20
11.550000
 10
15.650000
 20
12.900000
  0
LWPOLYLINE
  8
0
 62
7
 90
9
 70
1
 10
15.000000
 20
12.900000
 10
14.850000
 20
12.900000
 10
14.850000
 20
11.550000
 10
15.150000
 20
11.550000
 10
15.150000
 20
12.900000
 10
14.850000
 20
12.900000
 10
14.850000
 20
11.550000
 10
15.150000
 20
11.550000
 10
15.150000
 20
12.900000
  0
LWPOLYLINE
  8
0
 62
7
 90
9
 70
1
 10
22.300000
 20
19.650000
 10
22.650000
 20
19.650000
 10
22.650000
 20
21.350000
 10
21.950000
 20
21.350000
 10
21.950000
 20
19.650000
 10
22.650000
 20
19.650000
 10
22.650000
 20
21.350000
 10
21.950000
 20
21.350000
 10
21.950000
 20
19.650000
  0
LWPOLYLINE
  8
0
 62
7
 90
9
 70
1
 10
23.400000
 20
19.650000
 10
23.750000
 20
19.650000
 10
23.750000
 20
21.350000
 10
23.050000
 20
21.350000
 10
23.050000
 20
19.650000
 10
23.750000
 20
19.650000
 10
23.750000
 20
21.350000
 10
23.050000
 20
21.350000
 10
23.050000
 20
19.650000
  0
LWPOLYLINE
  8
0
 62
7
 90
9
 70
1
 10
24.500000
 20
19.650000
 10
24.850000
 20
19.650000
 10
24.850000
 20
21.350000
 10
24.150000
 20
21.350000
 10
24.150000
 20
19.650000
 10
24.850000
 20
19.650000
 10
24.850000
 20
21.350000
 10
24.150000
 20
21.350000
 10
24.150000
 20
19.650000
  0
LWPOLYLINE
  8
0
 62
7
 90
9
 70
1
 10
25.600000
 20
19.650000
 10
25.950000
 20
19.650000
 10
25.950000
 20
21.350000
 10
25.250000
 20
21.350000
 10
25.250000
 20
19.650000
 10
25.950000
 20
19.650000
 10
25.950000
 20
21.350000
 10
25.250000
 20
21.350000
 10
25.250000
 20
19.650000
  0
LWPOLYLINE
  8
0
 62
7
 90
9
 70
1
 10
26.700000
 20
19.650000
 10
27.050000
 20
19.650000
 10
27.050000
 20
21.350000
 10
26.350000
 20
21.350000
 10
26.350000
 20
19.650000
 10
27.050000
 20
19.650000
 10
27.050000
 20
21.350000
 10
26.350000
 20
21.350000
 10
26.350000
 20
19.650000
  0
LWPOLYLINE
  8
0
 62
7
 90
9
 70
1
 10
26.700000
 20
23.650000
 10
27.050000
 20
23.650000
 10
27.050000
 20
25.350000
 10
26.350000
 20
25.350000
 10
26.350000
 20
23.650000
 10
27.050000
 20
23.650000
 10
27.050000
 20
25.350000
 10
26.350000
 20
25.350000
 10
26.350000
 20
23.650000
  0
LWPOLYLINE
  8
0
 62
7
 90
9
 70
1
 10
25.600000
 20
23.650000
 10
25.950000
 20
23.650000
 10
25.950000
 20
25.350000
 10
25.250000
 20
25.350000
 10
25.250000
 20
23.650000
 10
25.950000
 20
23.650000
 10
25.950000
 20
25.350000
 10
25.250000
 20
25.350000
 10
25.250000
 20
23.650000
  0
LWPOLYLINE
  8
0
 62
7
 90
9
 70
1
 10
24.500000
 20
23.650000
 10
24.850000
 20
23.650000
 10
24.850000
 20
25.350000
 10
24.150000
 20
25.350000
 10
24.150000
 20
23.650000
 10
24.850000
 20
23.650000
 10
24.850000
 20
25.350000
 10
24.150000
 20
25.350000
 10
24.150000
 20
23.650000
  0
LWPOLYLINE
  8
0
 62
7
 90
9
 70
1
 10
23.400000
 20
23.650000
 10
23.750000
 20
23.650000
 10
23.750000
 20
25.350000
 10
23.050000
 20
25.350000
 10
23.050000
 20
23.650000
 10
23.750000
 20
23.650000
 10
23.750000
 20
25.350000
 10
23.050000
 20
25.350000
 10
23.050000
 20
23.650000
  0
LWPOLYLINE
  8
0
 62
7
 90
9
 70
1
 10
22.300000
 20
23.650000
 10
22.650000
 20
23.650000
 10
22.650000
 20
25.350000
 10
21.950000
 20
25.350000
 10
21.950000
 20
23.650000
 10
22.650000
 20
23.650000
 10
22.650000
 20
25.350000
 10
21.950000
 20
25.350000
 10
21.950000
 20
23.650000
  0
LWPOLYLINE
  8
0
 62
7
 90
9
 70
1
 10
24.500000
 20
21.950000
 10
27.750000
 20
21.950000
 10
27.750000
 20
23.050000
 10
21.250000
 20
23.050000
 10
21.250000
 20
21.950000
 10
27.750000
 20
21.950000
 10
27.750000
 20
23.050000
 10
21.250000
 20
23.050000
 10
21.250000
 20
21.950000
  0
ENDSEC
  0
EOF
